<?xml version="1.0" encoding="UTF-8" standalone="no"?>
<svg
   viewBox="0 0 311.00683 311.00683"
   version="1.1"
   id="svg33"
   sodipodi:docname="stop-sign-33947-edit.svg"
   width="311.00684"
   height="311.00684"
   inkscape:version="1.1.1 (3bf5ae0d25, 2021-09-20)"
   xmlns:inkscape="http://www.inkscape.org/namespaces/inkscape"
   xmlns:sodipodi="http://sodipodi.sourceforge.net/DTD/sodipodi-0.dtd"
   xmlns:xlink="http://www.w3.org/1999/xlink"
   xmlns="http://www.w3.org/2000/svg"
   xmlns:svg="http://www.w3.org/2000/svg">
  <sodipodi:namedview
     id="namedview35"
     pagecolor="#ffffff"
     bordercolor="#666666"
     borderopacity="1.0"
     inkscape:pageshadow="2"
     inkscape:pageopacity="0.0"
     inkscape:pagecheckerboard="0"
     showgrid="false"
     fit-margin-top="0"
     fit-margin-left="0"
     fit-margin-right="0"
     fit-margin-bottom="0"
     inkscape:zoom="2.328"
     inkscape:cx="155.49828"
     inkscape:cy="155.49828"
     inkscape:window-width="3840"
     inkscape:window-height="2054"
     inkscape:window-x="2869"
     inkscape:window-y="-11"
     inkscape:window-maximized="1"
     inkscape:current-layer="text27" />
  <defs
     id="defs17">
    <filter
       id="e"
       x="-0.1108647"
       y="-0.1108647"
       width="1.2217294"
       height="1.2217294">
      <feGaussianBlur
         stdDeviation="2.8211"
         id="feGaussianBlur2" />
    </filter>
    <linearGradient
       id="a">
      <stop
         stop-color="#f10f07"
         offset="0"
         id="stop5" />
      <stop
         stop-color="#780804"
         offset="1"
         id="stop7" />
    </linearGradient>
    <linearGradient
       id="b"
       x1="-80.718002"
       x2="-92.851997"
       y1="67.181"
       y2="38.398998"
       gradientTransform="matrix(-4.6558,1.9285,1.9285,4.6558,1.6055,45.781)"
       gradientUnits="userSpaceOnUse">
      <stop
         stop-color="#fff"
         stop-opacity=".62617"
         offset="0"
         id="stop10" />
      <stop
         stop-color="#fff"
         stop-opacity="0"
         offset="1"
         id="stop12" />
    </linearGradient>
    <linearGradient
       id="d"
       x1="-68.907997"
       x2="-90.299004"
       y1="92.113998"
       y2="40.472"
       gradientUnits="userSpaceOnUse"
       xlink:href="#a" />
    <linearGradient
       id="c"
       x1="-90.535004"
       x2="-68.943001"
       y1="39.903"
       y2="92.029999"
       gradientUnits="userSpaceOnUse"
       xlink:href="#a" />
  </defs>
  <path
     transform="matrix(-5.0925,-2.1094,2.1094,-5.0925,-389.71622,323.24192)"
     d="m -58.147,87.559 -21.592,8.9436 -21.592,-8.9436 -8.9436,-21.592 8.9436,-21.592 21.592,-8.9436 21.592,8.9436 8.9436,21.592 z"
     filter="url(#e)"
     id="path19" />
  <g
     transform="translate(-344.57622,-25.291074)"
     id="g31">
    <path
       transform="matrix(-5.0925,-2.1094,2.1094,-5.0925,-45.142,348.53)"
       d="m -58.147,87.559 -21.592,8.9436 -21.592,-8.9436 -8.9436,-21.592 8.9436,-21.592 21.592,-8.9436 21.592,8.9436 8.9436,21.592 z"
       fill="url(#d)"
       id="path21"
       style="fill:url(#d)" />
    <path
       transform="matrix(-4.6558,-1.9285,1.9285,-4.6558,1.6055,334.15)"
       d="m -58.147,87.559 -21.592,8.9436 -21.592,-8.9436 -8.9436,-21.592 8.9436,-21.592 21.592,-8.9436 21.592,8.9436 8.9436,21.592 z"
       fill="url(#c)"
       stroke="#ffffff"
       stroke-linecap="round"
       stroke-width="0.99218"
       id="path23"
       style="fill:url(#c)" />
    <g
       aria-label="STOP"
       transform="scale(0.89543,1.1168)"
       id="text27"
       style="font-weight:bold;font-size:100.98px;font-family:Arial;fill:#ffffff">
      <path
         d="m 425.09431,174.48612 14.20031,-1.38059 q 1.28197,7.14947 5.1772,10.50232 3.94453,3.35285 10.60093,3.35285 7.05085,0 10.60093,-2.9584 3.59938,-3.00771 3.59938,-7.00154 0,-2.56395 -1.52851,-4.33899 -1.47919,-1.82434 -5.2265,-3.15562 -2.56394,-0.88752 -11.68567,-3.15563 -11.73498,-2.90909 -16.46842,-7.14946 -6.6564,-5.9661 -6.6564,-14.54546 0,-5.52234 3.10632,-10.30509 3.15562,-4.83205 9.02312,-7.34669 5.91679,-2.51464 14.24961,-2.51464 13.60864,0 20.46226,5.96611 6.90293,5.9661 7.24808,15.92604 l -14.59477,0.64099 q -0.93682,-5.57165 -4.04314,-7.98768 -3.05701,-2.46533 -9.22035,-2.46533 -6.36055,0 -9.95994,2.61325 -2.31741,1.67643 -2.31741,4.48691 0,2.56394 2.16949,4.38829 2.76118,2.31741 13.41141,4.83205 10.65023,2.51464 15.72882,5.2265 5.12789,2.66256 7.98767,7.34669 2.9091,4.63483 2.9091,11.48845 0,6.21264 -3.45147,11.63637 -3.45146,5.42373 -9.76271,8.08629 -6.31125,2.61325 -15.72882,2.61325 -13.70725,0 -21.05394,-6.31125 -7.34669,-6.36056 -8.77658,-18.48999 z"
         id="path872" />
      <path
         d="M 512.41637,198.00539 V 137.9499 h -21.44839 v -12.22805 h 57.44224 v 12.22805 h -21.39908 v 60.05549 z"
         id="path874" />
      <path
         d="m 553.04504,162.30738 q 0,-11.04469 3.30355,-18.5393 2.46533,-5.52234 6.7057,-9.91064 4.28968,-4.38829 9.36827,-6.50847 6.75501,-2.85979 15.58089,-2.85979 15.97536,0 25.54084,9.91064 9.6148,9.91063 9.6148,27.56241 0,17.50386 -9.51618,27.41449 -9.51618,9.86133 -25.44223,9.86133 -16.12327,0 -25.63945,-9.81202 -9.51619,-9.86133 -9.51619,-27.11865 z m 15.03853,-0.49307 q 0,12.27735 5.67026,18.63791 5.67027,6.31125 14.39754,6.31125 8.72728,0 14.29893,-6.26194 5.62096,-6.31125 5.62096,-18.88445 0,-12.42527 -5.47304,-18.53929 -5.42373,-6.11403 -14.44685,-6.11403 -9.02311,0 -14.54546,6.21264 -5.52234,6.16333 -5.52234,18.63791 z"
         id="path876" />
      <path
         d="m 634.54893,198.00539 v -72.28354 h 23.42065 q 13.3128,0 17.35594,1.08474 6.21264,1.62712 10.4037,7.10016 4.19107,5.42373 4.19107,14.05239 0,6.6564 -2.41603,11.19261 -2.41602,4.53621 -6.16333,7.14947 -3.69799,2.56394 -7.54391,3.40215 -5.22651,1.03544 -15.13714,1.03544 h -9.51618 v 27.26658 z M 649.1437,137.9499 v 20.51156 h 7.98767 q 8.62866,0 11.53776,-1.13405 2.90909,-1.13406 4.53621,-3.55008 1.67642,-2.41603 1.67642,-5.62096 0,-3.94453 -2.31741,-6.50848 -2.31741,-2.56394 -5.86749,-3.20493 -2.61325,-0.49306 -10.50231,-0.49306 z"
         id="path878" />
    </g>
    <path
       d="m 441.19,38.62 -83.281,83.281 v 26.125 c 90.094,82.377 203.4,79.382 284.34,-0.0312 v -26.094 l -83.281,-83.281 h -117.78 z"
       fill="url(#b)"
       id="path29"
       style="fill:url(#b)" />
  </g>
</svg>
