<?xml version="1.0" encoding="UTF-8"?>
<svg viewBox="0 0 375 375" xmlns="http://www.w3.org/2000/svg" xmlns:xlink="http://www.w3.org/1999/xlink">
 <defs>
  <filter id="e">
   <feGaussianBlur stdDeviation="2.8211"/>
  </filter>
  <linearGradient id="a">
   <stop stop-color="#f10f07" offset="0"/>
   <stop stop-color="#780804" offset="1"/>
  </linearGradient>
  <linearGradient id="b" x1="-80.718" x2="-92.852" y1="67.181" y2="38.399" gradientTransform="matrix(-4.6558 1.9285 1.9285 4.6558 1.6055 45.781)" gradientUnits="userSpaceOnUse">
   <stop stop-color="#fff" stop-opacity=".62617" offset="0"/>
   <stop stop-color="#fff" stop-opacity="0" offset="1"/>
  </linearGradient>
  <linearGradient id="d" x1="-68.908" x2="-90.299" y1="92.114" y2="40.472" gradientUnits="userSpaceOnUse" xlink:href="#a"/>
  <linearGradient id="c" x1="-90.535" x2="-68.943" y1="39.903" y2="92.03" gradientUnits="userSpaceOnUse" xlink:href="#a"/>
 </defs>
 <path transform="matrix(-5.0925 -2.1094 2.1094 -5.0925 -357.71 355.24)" d="m-58.147 87.559-21.592 8.9436-21.592-8.9436-8.9436-21.592 8.9436-21.592 21.592-8.9436 21.592 8.9436 8.9436 21.592-8.9436 21.592z" filter="url(#e)"/>
 <g transform="translate(-312.57 6.707)">
  <path transform="matrix(-5.0925 -2.1094 2.1094 -5.0925 -45.142 348.53)" d="m-58.147 87.559-21.592 8.9436-21.592-8.9436-8.9436-21.592 8.9436-21.592 21.592-8.9436 21.592 8.9436 8.9436 21.592-8.9436 21.592z" fill="url(#d)"/>
  <path transform="matrix(-4.6558 -1.9285 1.9285 -4.6558 1.6055 334.15)" d="m-58.147 87.559-21.592 8.9436-21.592-8.9436-8.9436-21.592 8.9436-21.592 21.592-8.9436 21.592 8.9436 8.9436 21.592-8.9436 21.592z" fill="url(#c)" stroke="#fff" stroke-linecap="round" stroke-width=".99218"/>
  <text transform="scale(.89543 1.1168)" x="421.44562" y="198.00539" fill="#fff" font-family="Arial" font-size="100.98" font-weight="bold">
   <tspan x="421.44562" y="198.00539">STOP</tspan>
  </text>
  <path d="m441.19 38.62-83.281 83.281v26.125c90.094 82.377 203.4 79.382 284.34-0.03125v-26.094l-83.281-83.281h-117.78z" fill="url(#b)"/>
 </g>
</svg>
